<svg xmlns="http://www.w3.org/2000/svg" viewBox="0 0 100 100" role="img"><title>Overload Boiler</title><defs><linearGradient id="gold" x2=".65" y2="1"><stop stop-color="#ffe29a"/><stop offset="1" stop-color="#dda448"/></linearGradient><linearGradient id="steel" x2=".65" y2="1"><stop stop-color="#e0ebe4"/><stop offset="1" stop-color="#729aa7"/></linearGradient><linearGradient id="teal" x2=".65" y2="1"><stop stop-color="#a1edce"/><stop offset="1" stop-color="#37a99f"/></linearGradient><linearGradient id="orange" x2=".65" y2="1"><stop stop-color="#ffc281"/><stop offset="1" stop-color="#e98a47"/></linearGradient><linearGradient id="coral" x2=".65" y2="1"><stop stop-color="#ffb296"/><stop offset="1" stop-color="#dc655b"/></linearGradient><linearGradient id="cream" x2=".65" y2="1"><stop stop-color="#fff8de"/><stop offset="1" stop-color="#e4ce9f"/></linearGradient></defs><ellipse cx="50" cy="91" rx="32" ry="4" fill="#142c38" opacity=".18"/><g stroke="#263d48" stroke-width="3.5" stroke-linecap="round" stroke-linejoin="round"><path fill="url(#steel)" d="M27 80v10h10V80m26 0v10h10V80M36 12h28v15H36z"/><rect x="19" y="25" width="62" height="56" rx="18" fill="url(#coral)"/><path d="M19 39H9v23h10m62-23h10v23H81" fill="url(#gold)"/><circle cx="50" cy="45" r="13" fill="url(#cream)"/><path d="m50 45 6-7" stroke="#e66b50"/><rect x="33" y="65" width="34" height="8" rx="3" fill="#283f47"/><path d="M39 66v5m11-5v5m11-5v5" stroke="#ffca72"/><path d="M47 19h7" stroke="#fff0ca"/></g></svg>
