<svg xmlns="http://www.w3.org/2000/svg" viewBox="0 0 100 100" role="img"><title>Work glove</title><defs><linearGradient id="gold" x2=".65" y2="1"><stop stop-color="#ffe29a"/><stop offset="1" stop-color="#dda448"/></linearGradient><linearGradient id="steel" x2=".65" y2="1"><stop stop-color="#e0ebe4"/><stop offset="1" stop-color="#729aa7"/></linearGradient><linearGradient id="teal" x2=".65" y2="1"><stop stop-color="#a1edce"/><stop offset="1" stop-color="#37a99f"/></linearGradient><linearGradient id="orange" x2=".65" y2="1"><stop stop-color="#ffc281"/><stop offset="1" stop-color="#e98a47"/></linearGradient><linearGradient id="coral" x2=".65" y2="1"><stop stop-color="#ffb296"/><stop offset="1" stop-color="#dc655b"/></linearGradient><linearGradient id="cream" x2=".65" y2="1"><stop stop-color="#fff8de"/><stop offset="1" stop-color="#e4ce9f"/></linearGradient></defs><ellipse cx="50" cy="91" rx="32" ry="4" fill="#142c38" opacity=".18"/><g stroke="#263d48" stroke-width="3.5" stroke-linecap="round" stroke-linejoin="round"><path fill="url(#gold)" d="M27 73 13 52q-6-13 4-15l13 12-6-27q-2-12 9-10l9 26-3-29q1-10 10-5l7 31 3-23q4-9 11-2l-2 31 6-15q7-7 12 1l-5 36-13 15z"/><path fill="url(#teal)" d="m25 69 45 6-3 16-43-6z"/><path d="m41 49 15 4M35 81l23 3" stroke="#fff0bf"/></g></svg>
